<?xml version="1.0" encoding="UTF-8" standalone="no"?>
<svg
   fill-opacity="1"
   color-rendering="auto"
   color-interpolation="auto"
   text-rendering="auto"
   stroke="#000000"
   stroke-linecap="square"
   width="389"
   stroke-miterlimit="10"
   shape-rendering="auto"
   stroke-opacity="1"
   fill="#000000"
   stroke-dasharray="none"
   font-weight="normal"
   stroke-width="1"
   height="389"
   font-family="Dialog"
   font-style="normal"
   stroke-linejoin="miter"
   font-size="12px"
   stroke-dashoffset="0"
   image-rendering="auto"
   version="1.1"
   id="svg6"
   sodipodi:docname="swissgenomicsassociation.svg"
   inkscape:export-filename="logo_v2.svg"
   inkscape:export-xdpi="116.21053"
   inkscape:export-ydpi="116.21053"
   inkscape:version="1.4 (e7c3feb1, 2024-10-09)"
   xmlns:inkscape="http://www.inkscape.org/namespaces/inkscape"
   xmlns:sodipodi="http://sodipodi.sourceforge.net/DTD/sodipodi-0.dtd"
   xmlns="http://www.w3.org/2000/svg"
   xmlns:svg="http://www.w3.org/2000/svg">
  <sodipodi:namedview
     id="namedview6"
     pagecolor="#ffffff"
     bordercolor="#000000"
     borderopacity="0.25"
     inkscape:showpageshadow="2"
     inkscape:pageopacity="0.0"
     inkscape:pagecheckerboard="0"
     inkscape:deskcolor="#d1d1d1"
     inkscape:zoom="1.6863753"
     inkscape:cx="194.7965"
     inkscape:cy="194.5"
     inkscape:window-width="1200"
     inkscape:window-height="805"
     inkscape:window-x="245"
     inkscape:window-y="25"
     inkscape:window-maximized="0"
     inkscape:current-layer="g6"
     inkscape:export-bgcolor="#ffffff00" />
  <!--Generated by ySVG 2.5-->
  <defs
     id="genericDefs" />
  <g
     id="g6"
     transform="translate(33.18415,4.3271661)">
    <defs
       id="defs1">
      <clipPath
         clipPathUnits="userSpaceOnUse"
         id="clipPath1">
        <path
           d="M 0,0 H 323 V 389 H 0 Z"
           id="path1" />
      </clipPath>
      <clipPath
         clipPathUnits="userSpaceOnUse"
         id="clipPath2">
        <path
           d="M 528,-113 H 851 V 276 H 528 Z"
           id="path2" />
      </clipPath>
      <clipPath
         clipPathUnits="userSpaceOnUse"
         id="clipPath3">
        <path
           d="m 38.9024,10.5925 h 322.9999 v 389 H 38.9024 Z"
           id="path3" />
      </clipPath>
    </defs>
    <g
       text-rendering="geometricPrecision"
       shape-rendering="geometricPrecision"
       transform="translate(-38.9024,-10.5925)"
       id="g5"
       style="fill:#a8a8a8;fill-opacity:1">
      <g
         clip-path="url(#clipPath3)"
         id="g4"
         style="fill:#a8a8a8;fill-opacity:1">
        <svg
           opacity="1"
           writing-mode="lr-tb"
           stop-color="#000000"
           shape-rendering="auto"
           glyph-orientation-horizontal="0deg"
           color-profile="auto"
           lighting-color="rgb(255, 255, 255)"
           color="#000000"
           font-weight="400"
           alignment-baseline="auto"
           font-style="normal"
           version="1.1"
           color-interpolation-filters="linearrgb"
           text-anchor="start"
           stroke-linecap="butt"
           color-interpolation="srgb"
           font-variant="normal"
           word-spacing="normal"
           fill-opacity="1"
           text-rendering="auto"
           clip-path="none"
           text-decoration="none"
           letter-spacing="normal"
           viewBox="0 0 400 400"
           glyph-orientation-vertical="auto"
           display="inline"
           font-size-adjust="none"
           fill="#000000"
           overflow="hidden"
           font-stretch="normal"
           stroke-dasharray="none"
           id="svg1.svg"
           stroke-miterlimit="4"
           stop-opacity="1"
           color-rendering="auto"
           font-size="12px"
           mask="none"
           direction="ltr"
           baseline-shift="baseline"
           pointer-events="visiblepainted"
           enable-background="accumulate"
           fill-rule="nonzero"
           image-rendering="auto"
           stroke-dashoffset="0"
           width="400"
           marker-end="none"
           clip="auto"
           cursor="auto"
           stroke="none"
           visibility="visible"
           kerning="auto"
           stroke-width="1"
           font-family="Arial, Helvetica, sans-serif"
           flood-opacity="1"
           clip-rule="nonzero"
           src="none"
           height="400"
           unicode-bidi="normal"
           stroke-linejoin="miter"
           stroke-opacity="1"
           flood-color="rgb(0, 0, 0)"
           dominant-baseline="auto"
           marker-start="none"
           marker-mid="none"
           style="text-decoration:none;text-decoration-line:none;fill:#a8a8a8;fill-opacity:1">
          <g
             id="svg1.svgg"
             style="fill:#a8a8a8;fill-opacity:1">
            <path
               fill="#db130c"
               data-index="0"
               fill-rule="evenodd"
               style="display:inline;opacity:1;fill:#ffffff;fill-opacity:1"
               d="m 197.656,26.46 c -0.537,0.099 -2.822,0.885 -5.078,1.745 -12.533,4.78 -44.309,15.505 -63.281,21.359 C 111.34,55.104 92.873,59.789 70.628,64.448 58.44,67 57.12,67.515 55.33,70.412 l -1.147,1.856 0.072,59.862 c 0.041,34.484 0.235,62.181 0.456,65.331 4.092,58.193 33.667,106.585 90.406,147.922 19.287,14.052 46.921,29.209 54.492,29.888 6.614,0.594 34.192,-14.106 55.12,-29.38 57.451,-41.929 86.784,-89.888 90.546,-148.039 0.827,-12.782 0.895,-124.758 0.077,-126.579 -1.528,-3.4 -2.814,-4.014 -12.735,-6.085 C 294.506,57.233 260.292,47.335 216.992,31.74 201.134,26.028 200.667,25.9 197.656,26.46 m -39.559,46.307 c 1.078,1.083 1.082,1.108 0.887,5.274 -0.974,20.877 1.127,29.958 10.05,43.443 7.321,11.063 15.189,17.956 37.802,33.112 19.023,12.75 28.003,20.267 34.647,29.002 19.702,25.904 12.85,56.377 -18.169,80.796 -3.709,2.92 -2.879,2.958 -8.166,-0.372 -2.423,-1.526 -5.257,-3.207 -6.298,-3.736 l -1.892,-0.961 1.697,-1.083 c 3.84,-2.45 15.684,-14.127 20.199,-19.914 9.195,-11.785 10.883,-26.846 4.45,-39.695 -5.371,-10.729 -12.85,-17.414 -39.749,-35.527 -31.977,-21.532 -46.573,-41.249 -49.987,-67.521 -0.919,-7.071 -0.469,-22.178 0.704,-23.652 0.919,-1.154 12.543,-0.453 13.825,0.834 m 98.295,0.182 c 0.547,2.516 0.748,17.97 0.284,21.787 -2.551,20.982 -15.007,41.974 -33.996,57.297 -3.756,3.031 -3.599,3 -5.986,1.195 -1.125,-0.851 -3.659,-2.639 -5.63,-3.973 -3.362,-2.275 -4.739,-3.431 -4.381,-3.675 10.612,-7.249 23.21,-21.271 28.632,-31.871 4.819,-9.42 6.091,-15.766 6.091,-30.375 0,-12.688 -0.834,-11.459 7.781,-11.459 h 6.972 l 0.233,1.074 m -22.486,19.707 c 0.804,0.804 0.592,5.77 -0.308,7.246 l -0.774,1.27 h -33.177 c -18.247,0 -33.455,-0.107 -33.795,-0.237 -0.511,-0.196 -0.618,-0.973 -0.618,-4.492 v -4.255 h 34.102 c 26.003,0 34.213,0.111 34.57,0.468 m -8.515,25.141 c 0,0.409 -5.356,6.632 -6.796,7.897 l -1.435,1.259 H 199.845 182.53 l -3.088,-3.223 c -3.432,-3.581 -4.936,-5.528 -4.561,-5.903 0.306,-0.306 50.51,-0.336 50.51,-0.03 m -38.706,49.698 c 5.191,3.062 5.572,3.363 4.883,3.863 -1.65,1.198 -11.556,10.314 -15.611,14.367 -15.999,15.99 -17.757,35.565 -4.773,53.145 5.525,7.481 13.038,13.547 27.699,22.363 22.779,13.699 32.437,21.299 40.828,32.126 7.83,10.103 13.021,23.747 13.023,34.227 v 3.171 l -1.464,0.242 c -2.08,0.344 -11.735,0.31 -11.952,-0.042 -0.1,-0.161 -0.558,-2.403 -1.018,-4.981 -2.787,-15.601 -10.469,-27.555 -24.509,-38.135 -3.759,-2.833 -7.138,-5.022 -22.548,-14.603 -15.142,-9.415 -21.625,-14.507 -29.04,-22.811 -16.566,-18.552 -19.251,-41.566 -7.171,-61.468 5.361,-8.831 22.921,-26.408 25.195,-25.217 0.455,0.238 3.361,1.927 6.458,3.753 m 32.286,21.079 c 1.338,1.565 3.96,5.246 5.007,7.031 0.228,0.389 -4.669,0.489 -23.955,0.489 -16.741,0 -24.242,-0.128 -24.242,-0.412 0,-0.657 3.12,-5.079 5.015,-7.108 l 1.733,-1.855 h 17.427 17.427 l 1.588,1.855 m 11.702,23.242 c 0.121,0.484 0.169,2.549 0.106,4.59 l -0.115,3.711 -29.806,0.1 c -20.102,0.068 -30.054,-0.032 -30.567,-0.306 -0.924,-0.495 -1.141,-6.781 -0.271,-7.877 0.82,-1.035 0.793,-1.034 31.047,-1.066 l 29.387,-0.03 0.219,0.878 m -7.636,23.633 c -0.005,0.161 -1.644,2.227 -3.641,4.59 l -3.631,4.297 h -15.876 -15.875 l -2.011,-1.953 c -2.934,-2.849 -5.878,-6.445 -5.619,-6.864 0.269,-0.435 46.668,-0.505 46.653,-0.07 m -40.224,42.093 c 2.041,1.314 4.633,2.906 5.761,3.537 2.521,1.411 2.529,1.281 -0.195,3.121 -1.235,0.835 -5.246,4.511 -8.913,8.171 -11.047,11.023 -14.726,17.618 -17.716,31.752 -1.656,7.829 -0.857,7.139 -7.947,6.866 -7.054,-0.271 -6.746,-0.071 -6.679,-4.349 0.156,-9.998 5.82,-24.354 13.557,-34.362 5.391,-6.974 16.863,-18.063 17.987,-17.386 0.238,0.143 2.103,1.336 4.145,2.65 m 38.198,24.313 c 1.537,1.837 4.377,6.271 4.379,6.836 0,0.162 -11.421,0.293 -25.38,0.293 h -25.38 l 1.207,-2.05 c 0.665,-1.128 2.081,-3.15 3.149,-4.493 L 180.927,300 h 19.266 19.266 l 1.552,1.855"
               id="svg1.path0"
               stroke="none" />
          </g>
        </svg>
      </g>
    </g>
  </g>
</svg>
